<?xml version="1.0" encoding="utf-8"?>
<!-- Generator: Adobe Illustrator 15.0.0, SVG Export Plug-In . SVG Version: 6.00 Build 0)  -->
<!DOCTYPE svg PUBLIC "-//W3C//DTD SVG 1.1//EN" "http://www.w3.org/Graphics/SVG/1.1/DTD/svg11.dtd">
<svg version="1.1" id="图层_1" xmlns="http://www.w3.org/2000/svg" xmlns:xlink="http://www.w3.org/1999/xlink" x="0px" y="0px"
	 width="64px" height="64px" viewBox="0 0 64 64" enable-background="new 0 0 64 64" xml:space="preserve">
<path fill="#2AC2E1" d="M60.286,39.484c-0.009,0,0.457,2.334-1.595,2.334c-2.063,0-1.938-1.637-1.943-2.574
	c-0.059-5.846-0.117-11.694,0.029-17.542c0.063-2.868-1.021-4.735-3.693-6.132C46.697,12.224,42.09,8.739,35.82,5.199
	c-2.586-1.462-4.919-1.462-7.504-0.009c-6.377,3.577-11.286,7.052-17.73,10.528c-2.382,1.287-3.509,3.117-3.49,5.728
	c0.048,7.116,0.048,14.232,0,21.34c-0.019,2.603,1.108,4.119,3.519,5.405c6.542,3.494,11.547,7.033,18.012,10.646
	c2.284,1.278,4.393,1.333,6.667,0.073c6.931-3.825,13.92-7.559,20.821-11.446c0.572-0.321,1.855-0.118,2.361,0.533
	c0.67,0.899,0.428,2.444,0,2.687c-7.504,4.271-15.08,8.405-22.729,12.412c-2.688,1.413-5.609,1.057-8.281-0.389
	c-7.154-3.859-12.772-7.751-19.888-11.675c-3.1-1.712-3.83-4.083-3.848-7.466c-0.029-7.604-0.029-15.208-0.01-22.813
	c0.009-3.623,0.904-6.325,4.237-8.137C14.834,8.894,20.19,5.152,27.034,1.382c3.45-1.902,6.792-1.81,10.215,0.091
	c6.659,3.697,11.228,7.328,17.935,10.952c3.537,1.902,5.16,4.643,5.111,8.56c-0.077,6.628-0.018,20.594-0.018,20.594L60.286,39.484
	L60.286,39.484z"/>
<path fill="#2AC2E1" d="M43.627,29.848l-15.54-9.7c-1.881-1.163-3.415-0.322-3.415,1.905v19.896c0,2.227,1.534,3.066,3.415,1.904
	l15.54-9.728C45.507,32.965,45.507,31.035,43.627,29.848z M39.337,33.296l-9.491,5.938c-1.149,0.711-2.086,0.197-2.086-1.162V25.921
	c0-1.36,0.937-1.874,2.086-1.164l9.491,5.925C40.486,31.407,40.486,32.585,39.337,33.296z"/>
</svg>
