<?xml version="1.0" encoding="utf-8"?>
<!-- Generator: Adobe Illustrator 15.0.0, SVG Export Plug-In . SVG Version: 6.00 Build 0)  -->
<!DOCTYPE svg PUBLIC "-//W3C//DTD SVG 1.1//EN" "http://www.w3.org/Graphics/SVG/1.1/DTD/svg11.dtd">
<svg version="1.1" id="图层_1" xmlns="http://www.w3.org/2000/svg" xmlns:xlink="http://www.w3.org/1999/xlink" x="0px" y="0px"
	 width="64px" height="64px" viewBox="0 0 64 64" enable-background="new 0 0 64 64" xml:space="preserve">
<path fill="#2AC2E1" d="M47.531,50.832h3.264v-3.296h-3.264V50.832z M31.217,54.128h6.525v3.296h-6.525V54.128z M56.753,15.238
	l-6.34-5.446c-0.468-0.398-1.112-0.505-1.681-0.267l-4.907,2.047l-3.955,2.504c-0.521,0.336-0.813,0.94-0.747,1.56l0.493,4.852
	l-4.565,3.168l-5.38,0.642l-4.301-2.36l-2.672-5.264c-0.405-0.798-1.367-1.121-2.166-0.729l-5.799,2.858
	c-0.561,0.277-0.917,0.851-0.917,1.48v2.163l-1.935,1.905h-2.2c-0.421,0-0.829,0.165-1.132,0.462l-2.937,2.858
	c-0.666,0.649-0.666,1.724,0,2.373l2.575,2.506l1.479,7.073c0.078,0.373,0.281,0.709,0.577,0.945l5.354,4.334
	c0.291,0.231,0.65,0.363,1.021,0.363h5.9v3.586c0,0.907,0.73,1.646,1.63,1.646h6.569l2.973,2.043
	c0.52,0.354,1.188,0.381,1.729,0.064l4.039-2.328l5.569-2.117c0.301-0.112,0.556-0.313,0.742-0.57l3.506-4.861
	c0.203-0.285,0.314-0.623,0.314-0.974v-4.8c0-0.441-0.18-0.871-0.492-1.184l-2.05-2.01l2.595-1.728
	c0.24-0.16,0.438-0.379,0.563-0.64l1.821-3.67l4.604-3.237c0.438-0.309,0.699-0.813,0.699-1.351v-6.65
	C57.331,16.009,57.118,15.55,56.753,15.238L56.753,15.238L56.753,15.238z M54.066,22.281l-4.244,2.991
	c-0.223,0.159-0.404,0.369-0.525,0.613l-1.809,3.646l-3.934,2.608c-0.873,0.579-0.988,1.822-0.242,2.556l3.012,2.962v3.563
	l-2.907,4.037l-5.349,2.058l-3.379,1.934l-2.549-1.752c-0.271-0.188-0.591-0.287-0.92-0.287h-5.443V43.62
	c0-0.91-0.73-1.647-1.631-1.647h-6.957l-4.455-3.604l-1.458-6.993c-0.069-0.323-0.229-0.62-0.467-0.848l-1.713-1.671l1.498-1.21
	h1.954c0.425,0,0.835-0.167,1.14-0.468l2.9-2.857c0.31-0.307,0.49-0.731,0.49-1.177l-0.271-0.517l3.72-3.004l2.17,4.275
	c0.15,0.294,0.385,0.537,0.672,0.695l5.201,2.859c0.296,0.158,0.636,0.223,0.972,0.184l6.291-0.754
	c0.261-0.033,0.513-0.126,0.729-0.277l5.694-3.949c0.492-0.343,0.765-0.926,0.698-1.526l-0.489-4.81l2.854-1.83l3.734-1.536
	l5.012,4.305V22.281L54.066,22.281L54.066,22.281z"/>
<path fill="#2AC2E1" d="M43.391,64H20.61C9.245,64,0,54.756,0,43.391V20.61C0,9.245,9.245,0,20.61,0h22.781
	C54.756,0,64,9.245,64,20.61v22.781C64,54.756,54.756,64,43.391,64z M20.61,3.255c-9.569,0-17.355,7.786-17.355,17.355v22.781
	c0,9.567,7.786,17.354,17.355,17.354h22.781c9.567,0,17.354-7.787,17.354-17.354V20.61c0-9.569-7.786-17.355-17.354-17.355H20.61z"
	/>
</svg>
