<?xml version="1.0" encoding="utf-8"?>
<!-- Generator: Adobe Illustrator 15.0.0, SVG Export Plug-In . SVG Version: 6.00 Build 0)  -->
<!DOCTYPE svg PUBLIC "-//W3C//DTD SVG 1.1//EN" "http://www.w3.org/Graphics/SVG/1.1/DTD/svg11.dtd">
<svg version="1.1" id="图层_1" xmlns="http://www.w3.org/2000/svg" xmlns:xlink="http://www.w3.org/1999/xlink" x="0px" y="0px"
	 width="64px" height="64px" viewBox="0 0 64 64" enable-background="new 0 0 64 64" xml:space="preserve">
<path fill="#1DACCA" d="M60.286,39.484c-0.009,0,0.457,2.334-1.595,2.334c-2.063,0-1.938-1.637-1.943-2.574
	c-0.059-5.846-0.117-11.694,0.029-17.542c0.064-2.868-1.021-4.735-3.693-6.132C46.697,12.224,42.09,8.739,35.82,5.199
	c-2.586-1.462-4.919-1.462-7.504-0.009c-6.377,3.577-11.286,7.052-17.73,10.528c-2.382,1.287-3.509,3.117-3.49,5.728
	c0.048,7.116,0.048,14.232,0,21.34c-0.019,2.603,1.108,4.119,3.519,5.405c6.542,3.494,11.547,7.033,18.012,10.646
	c2.284,1.278,4.393,1.333,6.667,0.073c6.931-3.825,13.92-7.559,20.821-11.446c0.572-0.321,1.855-0.118,2.361,0.533
	c0.67,0.899,0.428,2.444,0,2.687c-7.504,4.27-15.08,8.405-22.729,12.412c-2.689,1.413-5.609,1.057-8.281-0.389
	c-7.154-3.859-12.772-7.751-19.888-11.675c-3.1-1.712-3.83-4.083-3.848-7.466c-0.029-7.604-0.029-15.208-0.01-22.813
	c0.009-3.623,0.904-6.325,4.237-8.137C14.834,8.894,20.19,5.152,27.034,1.382c3.45-1.902,6.792-1.81,10.215,0.091
	c6.659,3.697,11.228,7.328,17.935,10.952c3.537,1.902,5.16,4.643,5.111,8.56c-0.077,6.628-0.018,20.594-0.018,20.594L60.286,39.484
	L60.286,39.484z M31.941,41.223H21.133v-3.365h10.683v-5.313H21.162l-0.176-3.392h7.806c-3.247-5.306-6.201-8.22-9.341-13.341
	c2.955-0.635,5.025-0.708,6.424,2.244c1.896,3.972,4.258,5.829,6.601,9.984c2.265-3.99,4.559-5.727,6.424-9.562
	c1.313-2.712,3.092-3.641,6.367-2.657c-3.017,4.874-5.998,7.797-9.254,13.065h7.135l0.283,3.438h-8.195v5.486h7.99l0.185,3.318
	h-8.282v8.689h-3.081L31.941,41.223z"/>
</svg>
