<?xml version="1.0" encoding="utf-8"?>
<!-- Generator: Adobe Illustrator 15.0.0, SVG Export Plug-In . SVG Version: 6.00 Build 0)  -->
<!DOCTYPE svg PUBLIC "-//W3C//DTD SVG 1.1//EN" "http://www.w3.org/Graphics/SVG/1.1/DTD/svg11.dtd">
<svg version="1.1" id="图层_1" xmlns="http://www.w3.org/2000/svg" xmlns:xlink="http://www.w3.org/1999/xlink" x="0px" y="0px"
	 width="64px" height="64px" viewBox="0 0 64 64" enable-background="new 0 0 64 64" xml:space="preserve">
<path fill="#2AC2E1" d="M43.391,64H20.61C9.245,64,0,54.756,0,43.391V20.61C0,9.245,9.245,0,20.61,0h22.781
	C54.756,0,64,9.245,64,20.61v22.781C64,54.756,54.756,64,43.391,64z M20.61,3.255c-9.569,0-17.355,7.786-17.355,17.355v22.781
	c0,9.567,7.786,17.354,17.355,17.354h22.781c9.567,0,17.354-7.787,17.354-17.354V20.61c0-9.569-7.786-17.355-17.354-17.355H20.61z"
	/>
<path fill="#2AC2E1" d="M21.2,13.104h2.336c0.416,0,0.768-0.352,0.768-0.768s-0.352-0.768-0.768-0.768H21.2
	c-0.416,0-0.768,0.352-0.768,0.768C20.432,12.784,20.784,13.104,21.2,13.104z M27.44,13.104h6.208c0.416,0,0.768-0.352,0.768-0.768
	s-0.354-0.768-0.768-0.768H27.44c-0.416,0-0.768,0.352-0.768,0.768C26.672,12.784,26.992,13.104,27.44,13.104z M36.111,39.023
	l-2.303-0.354l-0.992-2.176c-0.256-0.548-0.805-0.896-1.408-0.896S30.256,35.948,30,36.494l-0.992,2.176l-2.304,0.354
	c-0.576,0.099-1.056,0.479-1.248,1.059c-0.192,0.544-0.032,1.186,0.384,1.602l1.696,1.694l-0.544,2.464
	c-0.128,0.608,0.096,1.248,0.608,1.602c0.256,0.191,0.576,0.289,0.896,0.289c0.288,0,0.544-0.063,0.8-0.227l2.144-1.277l2.304,1.313
	c0.256,0.128,0.513,0.189,0.768,0.189c0.354,0,0.672-0.097,0.961-0.317c0.512-0.386,0.703-1.022,0.543-1.636l-0.672-2.396
	l1.664-1.663c0.416-0.417,0.576-1.022,0.385-1.601C37.168,39.504,36.688,39.12,36.111,39.023z M33.873,42.576
	c-0.16,0.16-0.257,0.416-0.193,0.64l0.801,2.944l-2.721-1.536c-0.127-0.063-0.256-0.097-0.352-0.097
	c-0.128,0-0.256,0.033-0.352,0.097l-2.592,1.536l0.672-2.944c0.032-0.224-0.032-0.479-0.192-0.64l-2.016-2.016l2.72-0.416
	c0.256-0.033,0.448-0.192,0.576-0.416l1.184-2.597l1.184,2.597c0.096,0.224,0.32,0.383,0.576,0.416l2.721,0.416L33.873,42.576z"/>
<path fill="#2AC2E1" d="M41.393,29.936l2.563-2.496c0.288-0.288,0.354-0.704,0.354-1.12v-7.04c2.336-0.8,4.256-3.264,4.256-6.048
	c0-3.424-2.815-6.336-6.209-6.336H20.465c-3.424,0-6.176,2.912-6.176,6.336c0,2.752,1.984,5.216,4.32,6.048v7.04
	c0,0.416,0.32,0.832,0.608,1.12l2.432,2.272c-3.456,2.815-5.696,7.136-5.696,11.968c0,8.514,6.912,15.424,15.424,15.424
	s15.424-6.912,15.424-15.424C46.8,36.977,44.688,32.784,41.393,29.936z M35.729,26.832v-7.488h5.439v6.304L38.8,28.08
	C37.84,27.568,36.496,27.152,35.729,26.832z M34.16,19.344v7.136c-0.768-0.16-1.792-0.256-2.72-0.256
	c-0.928,0-1.92,0.096-2.72,0.256v-7.136H34.16z M17.392,13.104c0-1.728,1.376-3.104,3.072-3.104h21.44l0.256-0.032
	c1.695,0,3.168,1.568,3.168,3.264s-1.313,2.976-3.008,2.976H20.464C18.768,16.24,17.392,14.832,17.392,13.104z M21.712,25.648
	v-6.304h5.44v7.488c-0.768,0.288-1.984,0.672-2.88,1.152L21.712,25.648z M31.376,53.968c-6.816,0-12.32-5.504-12.32-12.319
	c0-6.813,5.504-12.316,12.32-12.316c6.815,0,12.319,5.504,12.319,12.316C43.695,48.464,38.191,53.968,31.376,53.968z"/>
<path fill="#2AC2E1" d="M29.424,33.393h0.064c0.192-0.033,0.384-0.033,0.576-0.033c0.416,0,0.768-0.352,0.768-0.768
	s-0.352-0.768-0.768-0.768c-0.224,0-0.48,0-0.704,0.032c-0.416,0.032-0.736,0.416-0.704,0.832
	C28.688,33.072,29.04,33.393,29.424,33.393z M27.184,34c0.384-0.191,0.576-0.641,0.384-1.023c-0.192-0.385-0.64-0.577-1.024-0.385
	c-3.04,1.408-4.992,4.448-4.992,7.776c0,0.416,0.352,0.768,0.768,0.768s0.768-0.352,0.768-0.768
	C23.088,37.616,24.688,35.12,27.184,34z"/>
</svg>
