<?xml version="1.0" standalone="no"?><!DOCTYPE svg PUBLIC "-//W3C//DTD SVG 1.1//EN" "http://www.w3.org/Graphics/SVG/1.1/DTD/svg11.dtd"><svg t="1510629607603" class="icon" style="" viewBox="0 0 1024 1024" version="1.1" xmlns="http://www.w3.org/2000/svg" p-id="1919" xmlns:xlink="http://www.w3.org/1999/xlink" width="64" height="64"><defs><style type="text/css"></style></defs><path d="M549.236364 196.791123 715.872597 360.069893C726.889295 370.864621 744.570951 370.684679 755.365679 359.66798 766.160408 348.651282 765.980465 330.969626 754.963767 320.174897L540.854676 110.379776C529.996195 99.740075 512.621987 99.740075 501.763506 110.379776L287.654414 320.174897C276.637716 330.969626 276.457774 348.651282 287.252503 359.66798 298.047232 370.684679 315.728887 370.864621 326.745585 360.069893L493.381818 196.791123 493.381818 549.21202C493.381818 564.746309 505.885285 577.163636 521.309091 577.163636 536.84043 577.163636 549.236364 564.649271 549.236364 549.21202L549.236364 196.791123ZM269.963636 27.927273C269.963636 12.503466 282.389773 0 297.706524 0L744.911658 0C760.233632 0 772.654545 12.395934 772.654545 27.927273 772.654545 43.351079 760.22841 55.854545 744.911658 55.854545L297.706524 55.854545C282.38455 55.854545 269.963636 43.458612 269.963636 27.927273Z" p-id="1920" fill="#888d8e"></path><path d="M145.966545 739.514182 145.966545 765.952 239.802182 765.952 239.802182 1005.381818 269.963636 1005.381818 269.963636 765.952 363.799273 765.952 363.799273 739.514182 145.966545 739.514182ZM513.117091 734.301091C472.901818 734.301091 441.623273 747.706182 418.536727 774.516364 396.567273 799.837091 385.768727 832.605091 385.768727 872.820364 385.768727 912.663273 396.567273 945.431273 418.536727 970.752 441.623273 997.189818 472.901818 1010.594909 512.744727 1010.594909 552.587636 1010.594909 584.238545 997.189818 607.325091 970.752 628.922182 945.431273 640.093091 913.035636 640.093091 872.820364 640.093091 832.232727 628.922182 799.464727 607.325091 774.144 584.238545 747.333818 552.587636 734.301091 513.117091 734.301091L513.117091 734.301091ZM513.117091 761.483636C543.650909 761.483636 567.482182 771.537455 584.610909 792.017455 600.994909 812.125091 609.559273 838.935273 609.559273 872.820364 609.559273 906.333091 600.994909 932.770909 584.610909 952.878545 567.482182 972.986182 543.278545 983.412364 512.744727 983.412364 482.210909 983.412364 458.007273 972.986182 440.878545 952.133818 424.494545 932.026182 416.302545 905.588364 416.302545 872.820364 416.302545 839.68 424.494545 813.242182 440.878545 793.134545 458.379636 771.909818 482.583273 761.483636 513.117091 761.483636L513.117091 761.483636ZM682.542545 739.514182 682.542545 1005.381818 713.076364 1005.381818 713.076364 896.651636 790.900364 896.651636C851.968 896.651636 882.874182 870.213818 882.874182 817.710545 882.874182 765.579636 852.340364 739.514182 791.272727 739.514182L682.542545 739.514182ZM713.076364 765.952 789.410909 765.952C810.635636 765.952 826.274909 770.048 836.701091 778.984727 847.127273 786.804364 852.340364 799.837091 852.340364 817.710545 852.340364 835.584 847.127273 848.616727 837.073455 857.181091 826.647273 865.745455 811.008 870.213818 789.410909 870.213818L713.076364 870.213818 713.076364 765.952Z" p-id="1921" fill="#888d8e"></path></svg>